<?xml version="1.0" standalone="no"?><!DOCTYPE svg PUBLIC "-//W3C//DTD SVG 1.1//EN" "http://www.w3.org/Graphics/SVG/1.1/DTD/svg11.dtd"><svg t="1621586114074" class="icon" viewBox="0 0 1025 1024" version="1.1" xmlns="http://www.w3.org/2000/svg" p-id="2473" xmlns:xlink="http://www.w3.org/1999/xlink" width="200.1953125" height="200"><defs><style type="text/css"></style></defs><path d="M980.8 468.8H43.2C17.6 468.8 0 486.4 0 512s17.6 43.2 43.2 43.2h939.2c25.6 0 43.2-17.6 43.2-43.2-1.6-25.6-19.2-43.2-44.8-43.2zM980.8 768H43.2C17.6 768 0 785.6 0 811.2s17.6 43.2 43.2 43.2h939.2c25.6 0 43.2-17.6 43.2-43.2-1.6-25.6-19.2-43.2-44.8-43.2zM43.2 256h939.2c25.6 0 43.2-17.6 43.2-43.2s-17.6-43.2-43.2-43.2H43.2c-25.6 0-43.2 17.6-43.2 43.2S17.6 256 43.2 256z" p-id="2474"></path></svg>